<svg id="Layer_1" data-name="Layer 1" xmlns="http://www.w3.org/2000/svg" viewBox="0 0 476 219"><defs><style>.cls-1{fill:#333132;}.cls-2{fill:#b42539;}</style></defs><title>TT_web_assets</title><path class="cls-1" d="M196,107.85H195c-8,0-16,0-24,0a1,1,0,0,1-1.22-.88c-1.6-4.93-3.27-9.85-4.86-14.79a1.2,1.2,0,0,0-1.37-1q-15.56,0-31.1,0a1.13,1.13,0,0,0-1.3.94c-1.6,4.94-3.25,9.86-4.89,14.79-.09.29-.2.58-.3.88H101.19c.15-.42.26-.77.39-1.12Q117.35,64,133.1,21.37a1.31,1.31,0,0,1,1.48-1q14,0,28,0a1.24,1.24,0,0,1,1.4.95q15.8,42.83,31.64,85.61ZM158.22,72.28c-3.4-10.15-6.75-20.17-10.11-30.19l-.23,0c-3.31,10-6.63,20.06-10,30.17Z"/><path class="cls-1" d="M283.93,46.3h-24c-.08-.25-.17-.5-.23-.76a10.83,10.83,0,0,0-8.43-8.67,16.92,16.92,0,0,0-11.88.89,8.38,8.38,0,0,0-3.55,3.07c-2,3.25-1,7.22,2.56,8.66a51.92,51.92,0,0,0,8,2.32c5.59,1.31,11.25,2.33,16.8,3.79a37.35,37.35,0,0,1,12.37,5.79c6.32,4.53,9.44,10.72,9.87,18.41.62,11.26-5.61,20.09-15.43,25-7.81,3.87-16.15,5.07-24.78,4.62a49,49,0,0,1-17.83-4c-10.59-4.77-16.55-13-18-24.47a8.06,8.06,0,0,1,0-1h1.14c7.2,0,14.4,0,21.6,0,1,0,1.3.17,1.51,1.22a11.5,11.5,0,0,0,8,9.39,20.67,20.67,0,0,0,15.12-.41c3.67-1.59,5.35-5.07,4.29-8.57a6.31,6.31,0,0,0-2.68-3.43,21.74,21.74,0,0,0-7.56-2.92c-5.14-1.14-10.31-2.12-15.43-3.35a41.54,41.54,0,0,1-15.16-6.77,21.76,21.76,0,0,1-9.18-17.66c-.32-9.57,4.07-16.68,11.71-22A38.25,38.25,0,0,1,240.25,19a48.86,48.86,0,0,1,24,2.63c8.5,3.29,14.83,8.88,17.91,17.67C282.92,41.54,283.32,43.88,283.93,46.3Z"/><path class="cls-1" d="M455.83,20.47V39.35H414.22V54.08h38.11V72.42h-38.1V88.81h42.32v19H390.48V20.47Z"/><path class="cls-1" d="M324,40.72H298.66V20.46H374V40.67H348.58V107.8H324Z"/><path class="cls-1" d="M20.06,20.43H95.39V40.69H70v67.1H45.39V40.74H20.06Z"/><path class="cls-2" d="M214.55,123.92a2.69,2.69,0,0,1,1.81.6.45.45,0,0,1,.35.2.35.35,0,0,1,0,.4c-.13.27-.67.51-1.6.71q-6,1.31-17.68,0a55.87,55.87,0,0,1-10.54-1.71h-.1c-.34,0-.81,0-1.41,0s-1.07,0-1.41,0l-.5,2.71c-.73,3.82-1.27,6.93-1.6,9.34l-.71,4.62-.5,4.72-.3,2.31-.3,2.31c-.2,1.94-.37,3.49-.5,4.62l-.41,4.62-.4,4.72c-.06.4-.12.8-.15,1.21s-.05.77-.05,1.1,0,.74,0,1.21a8.69,8.69,0,0,1-.15,1.2l-.3,4.72q-.51,6.33-.8,14.06-.41,7.14-.41,9.34c0,.54-.33.8-1,.8a.79.79,0,0,1-.81-.85v-4.77c0-1,0-2.54.11-4.62l.2-4.72c.13-3.15.33-6.29.6-9.44l.4-4.72c.13-2.07.27-3.65.4-4.72l.41-4.72.5-4.62.6-4.72a204.2,204.2,0,0,1,3.92-23.3l.5-2.51a280.34,280.34,0,0,0-31.64,2.51c-1.2.2-2.24.4-3.11.61s-2.16.51-3.87,1a9.74,9.74,0,0,0-3.61,1.51,1.3,1.3,0,0,0-.45,1.85.29.29,0,0,1,.05.41.62.62,0,0,1-.35.24c-.14,0-.27,0-.41-.24q-2.91-3.83,11.15-6l.1-.1h.4a273.47,273.47,0,0,1,31.94-2.41l.3-1.41h.9a4,4,0,0,0,1.71.85,6.75,6.75,0,0,1,1.51.56q4-.11,6-.1Q209.33,123.32,214.55,123.92Zm.21,1.2a1.8,1.8,0,0,0,.5-.15,2,2,0,0,1,.5-.15,1,1,0,0,0-.4-.1,49,49,0,0,0-7.94-.6q-5.92-.3-14.15-.2c-.34,0-.9,0-1.66,0L190,124l.3.1a109,109,0,0,0,14.06,1.61A40.59,40.59,0,0,0,214.76,125.12Z"/><path class="cls-2" d="M175.89,198.85a1.83,1.83,0,0,1-1.82-1.87v-4.77c0-1,0-2.56.1-4.65l.21-4.73c.13-3.11.33-6.31.6-9.49l.4-4.72c.14-2.08.27-3.67.41-4.76l.9-9.32.61-4.74a205.31,205.31,0,0,1,3.94-23.42l.24-1.2a273.05,273.05,0,0,0-30.24,2.45c-1.17.2-2.19.39-3,.59s-2.15.52-3.85.95a8.81,8.81,0,0,0-3.23,1.31c-.36.3-.31.39-.22.55a1.18,1.18,0,0,1,0,1.53,1.6,1.6,0,0,1-.93.63,1.34,1.34,0,0,1-1.48-.67,2.72,2.72,0,0,1-.49-2.76c.58-1.43,2.48-3.26,12.11-4.8a1,1,0,0,1,.47-.14h.3a271.92,271.92,0,0,1,31.22-2.39l.13-.63a1,1,0,0,1,1-.8h.9a1,1,0,0,1,.72.29,3,3,0,0,0,1.27.6,11.36,11.36,0,0,1,1.47.51c2.55-.07,4.48-.1,5.78-.1,10.58,0,17.73.21,21.25.61a3.77,3.77,0,0,1,2.19.67,1.48,1.48,0,0,1,.72.53,1.36,1.36,0,0,1,.14,1.48c-.29.58-.95.94-2.29,1.23-4.11.88-10.17.89-18,0a57.28,57.28,0,0,1-10.57-1.7l-1.32.05-.61,0-.35,1.91c-.75,3.89-1.27,6.92-1.6,9.29l-.71,4.64-1.1,9.31c-.2,1.92-.36,3.47-.5,4.61l-.8,9.31c-.07.45-.12.82-.15,1.2s0,.72,0,1,0,.79-.05,1.28a8.86,8.86,0,0,1-.17,1.33l-.28,4.59c-.33,4.13-.6,8.85-.8,14-.27,4.73-.41,7.86-.41,9.3A1.8,1.8,0,0,1,175.89,198.85Zm1.48-29.72-.37,4.39c-.27,3.15-.47,6.31-.6,9.39l-.2,4.73c0,1.24-.07,2.3-.09,3.16,0-1,.11-2,.17-3.16.21-5.2.48-9.94.81-14.09Zm.22-3c-.06.76-.12,1.64-.19,2.64h0a11.08,11.08,0,0,0,.14-1.14c0-.45.05-.82.05-1.14Zm-38.4-34.09a.67.67,0,0,0,.13.22ZM184,123.19v0h0Z"/><path class="cls-2" d="M216.76,162.18a5.65,5.65,0,0,1-.6,2.31,4.77,4.77,0,0,1,.25.71c.1.33.19.6.25.8a10.6,10.6,0,0,1,0,5.52,20.18,20.18,0,0,0-.65,5,2.26,2.26,0,0,0,.65,1.51,1.6,1.6,0,0,0,1.36.4,8.34,8.34,0,0,0,1.6-.35,10.89,10.89,0,0,0,1.76-.75,12.59,12.59,0,0,0,1.46-.86c.33-.23.67-.45,1-.65a47.69,47.69,0,0,0,6.12-5.52,1,1,0,0,1,.7-.2.48.48,0,0,1,0,.7q-2.31,2.1-3.21,3a30.5,30.5,0,0,1-2.91,2.31,27.83,27.83,0,0,1-3.82,2.36,6.82,6.82,0,0,1-3.31.61,2.24,2.24,0,0,1-.71-.21c-.06,0-.1,0-.1,0s0-.05-.1-.05a3.47,3.47,0,0,1-1.35-2.61,19,19,0,0,1,.25-4.37,30.85,30.85,0,0,0,.4-3.66,5.39,5.39,0,0,0-.5-2.41,48.1,48.1,0,0,1-7.84,8.63c0,.07-.06.17-.2.31q-5.92,5.33-7.13,1.9a12.22,12.22,0,0,1-.5-4.32,2.69,2.69,0,0,0,.1-.85,2.74,2.74,0,0,1,.1-.85q-2.31,4.51-4.72,5.72l-.3.1a.56.56,0,0,1-.4.11c-1.54.19-2.21-1.11-2-3.92,0-1.88.4-2.75,1.21-2.62.4.07.46,1,.2,2.72s-.07,2.58.6,2.51h.3a2.34,2.34,0,0,0,.75-.35,5.65,5.65,0,0,0,.61-.5l.65-.71a5.65,5.65,0,0,0,.55-.7l.5-.81a2.13,2.13,0,0,0,.35-.65c.61-.94,1.28-2.07,2-3.41,0-.34.15-.5.45-.5s.46.16.46.5q-.6,1.31-.56,5.42c0,2.75.52,4,1.46,3.72a4.26,4.26,0,0,0,1.81-.81,41.87,41.87,0,0,0,8.74-8.63,20.43,20.43,0,0,0,2.41-3.32v-.1a3,3,0,0,1-.15-2c.16-.8.55-1.23,1.15-1.3S216.76,161.38,216.76,162.18Z"/><path class="cls-2" d="M217.88,180.11a3.66,3.66,0,0,1-.68-.06c-.15.09-.44-.06-.91-.25h0a4.8,4.8,0,0,1-.43-.23,4.44,4.44,0,0,1-1.76-3.33,19.43,19.43,0,0,1,.26-4.61,33.62,33.62,0,0,0,.39-3.49,56.45,56.45,0,0,1-6.48,6.8,2,2,0,0,1-.32.41c-3.1,2.79-5.29,3.89-6.89,3.47a2.74,2.74,0,0,1-1.92-1.93,7.72,7.72,0,0,1-.5-2.54,9.13,9.13,0,0,1-3.12,2.81l-.28.1a1.67,1.67,0,0,1-.87.21,2.42,2.42,0,0,1-2-.64c-.85-.8-1.17-2.19-1-4.37,0-1.6.29-2.59.94-3.15a1.79,1.79,0,0,1,1.44-.39c1.59.27,1.23,2.61,1,3.87a6.75,6.75,0,0,0-.1,1.29l.17-.11a4.06,4.06,0,0,0,.48-.4c.15-.15.35-.37.6-.65a7,7,0,0,0,.45-.55c.1-.17.27-.45.51-.83.11-.17.18-.29.23-.38a1,1,0,0,1,.12-.28c.57-.88,1.19-1.93,1.87-3.17a1.41,1.41,0,0,1,1.44-1.21A1.43,1.43,0,0,1,202,168a1.11,1.11,0,0,1-.09.43c-.19.41-.51,1.6-.46,5a7.29,7.29,0,0,0,.35,2.72,3.57,3.57,0,0,0,1.32-.62,41.58,41.58,0,0,0,8.53-8.45,20.19,20.19,0,0,0,2.1-2.8,4.45,4.45,0,0,1,0-2.19,2.34,2.34,0,0,1,2-2.11h0a1.93,1.93,0,0,1,2,2.21,6.22,6.22,0,0,1-.51,2.33c0,.12.08.24.12.38.1.34.18.59.24.79a11.44,11.44,0,0,1,0,6.06,19.49,19.49,0,0,0-.63,4.74,1.27,1.27,0,0,0,.33.82.56.56,0,0,0,.54.15,8,8,0,0,0,1.43-.32,9.71,9.71,0,0,0,1.59-.68,14.86,14.86,0,0,0,1.35-.78c.35-.25.71-.48,1.06-.7a46.83,46.83,0,0,0,5.91-5.34,1.92,1.92,0,0,1,1.44-.53,1,1,0,0,1,.72.3,1.48,1.48,0,0,1,.09,2c-1.66,1.54-2.73,2.52-3.32,3.09a33.17,33.17,0,0,1-3,2.39,28.72,28.72,0,0,1-4,2.45A9.3,9.3,0,0,1,217.88,180.11Zm-16.24-3.94h0Zm-7.34-2h0Zm21.45-11.84a1,1,0,0,0-.05.2,2.92,2.92,0,0,0-.08.55A3.69,3.69,0,0,0,215.75,162.29Z"/><path class="cls-2" d="M231.22,175.74q-.6,5.92-1.1,12c0,.54-.24.77-.7.7a.62.62,0,0,1-.7-.7,11.06,11.06,0,0,0,.1-1.61q0-18.57,5.22-42,3.51-16.17,8.53-24.11a12,12,0,0,1,3.52-3.61,2.88,2.88,0,0,1,1.81-.6,4,4,0,0,1,3,1.7q2.72,2.91,2.51,9.34a32.84,32.84,0,0,1-.7,6.23q-3,13.76-13.46,27.92a74.69,74.69,0,0,1-7.63,9c-.14,1.27-.24,2.47-.3,3.61A44.49,44.49,0,0,1,241.77,166a5,5,0,0,1,3.92-1c.26,0,.6.24,1,.71h.1c.4.54.4.9,0,1.1s-.7.07-1.1-.4v-.1h-.21l-.2-.1a5.68,5.68,0,0,0-3.11.8c-.74.47-1.47.92-2.21,1.36A25,25,0,0,0,237.6,170c-.84.63-1.49,1.14-2,1.5l-2.26,1.81-1.95,1.56h.6c.2,0,.5,0,.9,0s.71.05.91.05c.4,0,1,0,1.91.1l1.9.2c.41.07,1,.15,1.86.25s1.46.18,1.86.25l1.91.1a1.8,1.8,0,0,0,.6.1h.65a2,2,0,0,1,.65.1h1.91a13,13,0,0,0,9.14-3.61c.33-.27.57-.47.7-.6l1.31-1.41q.5-.51.9,0a2.08,2.08,0,0,1-.09.6l-1.31,1.31a14.11,14.11,0,0,1-10.45,4.42,24.53,24.53,0,0,1-3.81-.21l-1.91-.2c-.2,0-1-.1-2.41-.3a24.83,24.83,0,0,0-3.22-.3c-.87-.07-1.5-.1-1.9-.1h-1.91l-.4.05A2.63,2.63,0,0,1,231.22,175.74ZM233.44,156c-.21,1.35-.46,3.42-.76,6.23s-.59,5-.85,6.53a94.24,94.24,0,0,0,11.65-15.37A66.82,66.82,0,0,0,251.91,133a36.45,36.45,0,0,0,.71-6q0-6.12-2.42-8.73a2.7,2.7,0,0,0-2.3-1.31q-2.11,0-4.52,3.72-4.53,7.23-7.94,23.9Q234.54,148.92,233.44,156Z"/><path class="cls-2" d="M229.57,189.52l-.3,0h0a1.58,1.58,0,0,1-1.55-1.71,10.23,10.23,0,0,0,.1-1.61c0-12.4,1.77-26.59,5.25-42.2,2.36-10.84,5.27-19.06,8.67-24.42a13.27,13.27,0,0,1,3.84-3.94,3.89,3.89,0,0,1,2.34-.75,4.92,4.92,0,0,1,3.79,2.08c1.95,2.09,2.89,5.48,2.74,10a33.44,33.44,0,0,1-.72,6.4c-2,9.29-6.62,18.81-13.64,28.32a75.84,75.84,0,0,1-7.47,8.9c0,.24,0,.47-.07.7a40.26,40.26,0,0,1,8.81-6.2,5.74,5.74,0,0,1,4.55-1.08,2.27,2.27,0,0,1,1.38.83.85.85,0,0,1,.33.26,2,2,0,0,1,.46,1.63,1.47,1.47,0,0,1-.82,1,1.74,1.74,0,0,1-2.18-.49h0c-.14-.05-.8-.07-2.43.71-.64.41-1.39.87-2.13,1.31a24.76,24.76,0,0,0-2.27,1.54c-.83.64-1.48,1.13-1.94,1.5l-2.08,1.66c.4,0,.95,0,1.63.1l1.94.2c.45.08,1.05.15,1.87.25s1.5.19,1.9.26l1.8.09a1.28,1.28,0,0,1,.27,0,1,1,0,0,0,.28.05h.65a3,3,0,0,1,.8.1h1.76a12,12,0,0,0,8.45-3.35c.35-.28.56-.45.68-.57l1.28-1.38a1.64,1.64,0,0,1,1.29-.57,1.51,1.51,0,0,1,1.14.62,1,1,0,0,1,.23.64,3,3,0,0,1-.15.91,1,1,0,0,1-.25.41l-1.3,1.3a15.11,15.11,0,0,1-11.17,4.72,25.5,25.5,0,0,1-4-.22l-1.85-.19s-.26,0-2.44-.31a24.26,24.26,0,0,0-3.08-.29c-.91-.06-1.52-.1-1.9-.1h-1.89c-.37,3.68-.71,7.43-1,11.22a1.63,1.63,0,0,1-.55,1.29A1.53,1.53,0,0,1,229.57,189.52Zm.78-15.51c0,.51-.08,1-.11,1.52a.9.9,0,0,1,.21-.44,1,1,0,0,1,.08-.73A1.16,1.16,0,0,1,230.35,174Zm.49-5.06-.06.62a.86.86,0,0,1,.14-.18l.09-.08A1.19,1.19,0,0,1,230.84,169Zm.6-4.76c-.13.93-.25,1.87-.37,2.8C231.19,166.17,231.31,165.23,231.44,164.19Zm3-8.08c-.21,1.33-.45,3.39-.75,6.18-.13,1.19-.25,2.27-.38,3.24a90.31,90.31,0,0,0,9.3-12.7,66.24,66.24,0,0,0,8.31-20.08,35.09,35.09,0,0,0,.68-5.85c0-3.77-.72-6.48-2.14-8a2.13,2.13,0,0,0-1.48-1c-.79,0-2,.57-3.75,3.26-2.93,4.67-5.55,12.6-7.8,23.55C235.84,147.62,235.17,151.46,234.44,156.11Z"/><path class="cls-2" d="M259.54,171.12a8.13,8.13,0,0,1-.15,1.41,9.09,9.09,0,0,0-.15,1.3,3.14,3.14,0,0,0,.46,1.91c.3.4.88.54,1.75.4a4.53,4.53,0,0,0,1.46-.25,11.73,11.73,0,0,0,1.31-.5,11.3,11.3,0,0,0,1.35-.8l1.11-.76c.2-.13.6-.41,1.2-.85a11.15,11.15,0,0,0,1-.76c.27-.2.56-.43.86-.7s.54-.48.7-.65a2.77,2.77,0,0,1,.6-.45,1.48,1.48,0,0,1,.46-.2.78.78,0,0,1,.3.1.45.45,0,0,1-.1.7,73.85,73.85,0,0,1-8.34,5.43,4.72,4.72,0,0,1-3.82.34q-1.8-.64-1.8-3.06c0-.33,0-.7.05-1.1a8.43,8.43,0,0,1,.2-1.26,2,2,0,0,1,.45-1,.56.56,0,0,1,.6-.2.55.55,0,0,1,.5.6Zm1.71-9.34a1.09,1.09,0,0,1,0,.95,4.55,4.55,0,0,1-.6,1.26c-.27.4-.5.57-.7.5s-.25-.43-.15-.9a3.34,3.34,0,0,1,.65-1.36C260.78,161.8,261.05,161.65,261.25,161.78Z"/><path class="cls-2" d="M261,178.07a5.35,5.35,0,0,1-1.81-.32c-1.13-.41-2.48-1.44-2.48-4,0-.35,0-.75.06-1.18a10.39,10.39,0,0,1,.22-1.4,3,3,0,0,1,.72-1.45,1.59,1.59,0,0,1,1.63-.45,1.54,1.54,0,0,1,1.21,1.57v.3a10.67,10.67,0,0,1-.17,1.58,9,9,0,0,0-.13,1.13,2.35,2.35,0,0,0,.24,1.3h0a1.56,1.56,0,0,0,.8,0,4.2,4.2,0,0,0,1.29-.21,12,12,0,0,0,1.21-.46,8.94,8.94,0,0,0,1.2-.72l1.1-.75c.22-.15.61-.42,1.19-.84s.81-.59.9-.68c.33-.25.6-.47.88-.71l.66-.61a3.27,3.27,0,0,1,.81-.62,1.5,1.5,0,0,1,1.71-.13,1.16,1.16,0,0,1,.36.3,1.45,1.45,0,0,1-.31,2.12,73.86,73.86,0,0,1-8.5,5.53A6.27,6.27,0,0,1,261,178.07Zm-1-12.55a1.21,1.21,0,0,1-.41-.07,1,1,0,0,1-.23-.11,1.66,1.66,0,0,1-.59-2,4.36,4.36,0,0,1,.84-1.77c1-1.29,1.91-.85,2.16-.67a.93.93,0,0,1,.28.28,2,2,0,0,1,.13,1.82,5.84,5.84,0,0,1-.73,1.51A1.76,1.76,0,0,1,260,165.52Z"/><path class="cls-2" d="M337.57,170.82q-5.11,4.73-8.53,6a7.72,7.72,0,0,1-2.61.51,5.46,5.46,0,0,1-3.31-1,13.78,13.78,0,0,1-2.77-2.71,17.88,17.88,0,0,0-2.06-2.31q-2.51-2-6.12,2a34,34,0,0,0-4.52,6.23,3.51,3.51,0,0,1-.4.75,6.54,6.54,0,0,0-.46.8,2.13,2.13,0,0,0-.15.75h-.09a.69.69,0,0,1-.81.26c-.33-.1-.5-.29-.5-.56q0-19.87,3.21-34.14-3.7,3.83-12.35,12.3T283,172.93c1.41.27,2.5.5,3.27.7s1.74.51,2.91.9a6.9,6.9,0,0,1,2.76,1.66,5.11,5.11,0,0,1,1.31,2.56q.19,2.12-2.31,4.32a27,27,0,0,1-6.53,4,23.9,23.9,0,0,1-7.83,1.86q-3.62.19-4.52-1.81a1.33,1.33,0,0,1-.1-.91,3,3,0,0,1,.05-.6,2.34,2.34,0,0,1,.15-.55,3.89,3.89,0,0,1,.25-.5c.1-.17.2-.36.3-.55a3.83,3.83,0,0,1,.3-.51l.35-.45a3.7,3.7,0,0,0,.31-.45q1.69-2.41,7.43-8.74l-.31-.1c-.46-.07-1.27-.16-2.41-.3s-2-.25-2.66-.35a21.16,21.16,0,0,1-2.21-.5,8.13,8.13,0,0,1-2.06-.86,2.86,2.86,0,0,1-.6-1,3.54,3.54,0,0,1,.71-2.16,4.67,4.67,0,0,1,1.4-1.36c.47-.26,1.07-.56,1.81-.9a13.38,13.38,0,0,1,5-1.05,7.15,7.15,0,0,1,4.57,1.45.7.7,0,0,1,.2.71.66.66,0,0,1-.45.5.83.83,0,0,1-.75-.2,3.91,3.91,0,0,0-2.67-1.16,10.45,10.45,0,0,0-3.51.3,11.27,11.27,0,0,0-3.22,1.36A4.5,4.5,0,0,0,272.1,170v.5a7.21,7.21,0,0,0,2.91,1.2l7.13,1.11q4.82-5,14-14.06t12.85-13a40.27,40.27,0,0,1,2.21-7.13,25.83,25.83,0,0,1,4.52-8.13c1.74-1.87,3.25-2.58,4.52-2.11q3.81,1.91-3.11,10-3,3.53-7.13,7.63-3.21,13.26-3.22,33.35c.14-.27.71-1.07,1.71-2.41a26.78,26.78,0,0,1,5.22-5.83q2.61-1.71,4.62-.7a14.12,14.12,0,0,1,2.87,2.86,11.25,11.25,0,0,0,3.06,2.86,5,5,0,0,0,2.31.51q2.72,0,6.73-3c.06-.07.47-.41,1.2-1s1.78-1.49,3.11-2.56C337.84,170.39,337.84,170.62,337.57,170.82Zm-45.09,7.53c-1.33-1.94-4.82-3.41-10.44-4.42l-4,4.32a52.33,52.33,0,0,0-3.81,4.72c-1.68,2.48-1.71,4.08-.11,4.82q1.81.92,5.73,0a25.07,25.07,0,0,0,10.85-5.32l.2-.2C292.35,180.8,292.89,179.49,292.48,178.35Zm24.11-47.1q-3.12,3.81-6.13,13.16a36.39,36.39,0,0,1,2.51-2.76q1.81-1.86,3.07-3.32c.83-1,1.62-1.92,2.35-2.86.54-.74.82-1.14.86-1.2s.18-.32.45-.76a2.62,2.62,0,0,0,.4-.8,3.19,3.19,0,0,1,.3-.81c.2-.43.26-.7.15-.8s-.11-.38,0-.85q-.31-2.31-3.52.6Z"/><path class="cls-2" d="M276,189.93c-2.49,0-4.11-.81-4.83-2.42A2.35,2.35,0,0,1,271,186a2,2,0,0,1,.05-.58,3.51,3.51,0,0,1,.21-.75,5,5,0,0,1,.32-.66,5.4,5.4,0,0,0,.27-.49,4.29,4.29,0,0,1,.4-.65l.36-.47a2.5,2.5,0,0,0,.19-.27,94.68,94.68,0,0,1,6.34-7.59l-.83-.09q-1.74-.21-2.7-.36a19,19,0,0,1-2.33-.53,8.8,8.8,0,0,1-2.32-1,1,1,0,0,1-.24-.21,3.58,3.58,0,0,1-.81-1.41,4.57,4.57,0,0,1,.87-3,5.77,5.77,0,0,1,1.71-1.63c.5-.28,1.13-.6,1.9-1a14.62,14.62,0,0,1,5.37-1.15h.2a8.19,8.19,0,0,1,5,1.66,1.77,1.77,0,0,1,.58,1.75,2.48,2.48,0,0,1-.15.41c2.7-2.75,6-6.06,10-10,5.91-5.85,10.15-10.12,12.62-12.72a41.5,41.5,0,0,1,2.21-7,26.72,26.72,0,0,1,4.69-8.42c2.07-2.22,4-3,5.64-2.4a3.33,3.33,0,0,1,1.95,2.34c.43,2.13-1.05,5.09-4.64,9.31-2,2.29-4.3,4.81-7,7.49-1.9,8-2.94,17.91-3.1,29.63a26.73,26.73,0,0,1,5.31-5.87c2.09-1.36,4-1.61,5.66-.78a14.41,14.41,0,0,1,3.19,3.13,10.46,10.46,0,0,0,2.76,2.61c1.61.8,4.34.28,7.95-2.43h0l.77-.68.39-.34c.75-.64,1.79-1.5,3.14-2.58a1,1,0,0,1,1.35.07,1.49,1.49,0,0,1,.49,1.19,1.34,1.34,0,0,1-.55,1c-3.52,3.25-6.41,5.27-8.83,6.2-2.8,1-5.09.66-6.88-.62a15.23,15.23,0,0,1-3-2.91,17.88,17.88,0,0,0-1.92-2.17c-.42-.33-1.74-1.38-4.72,1.92a33.67,33.67,0,0,0-4.4,6.06,3,3,0,0,1-.43.81,3.69,3.69,0,0,0-.37.64.93.93,0,0,0-.06.34,1,1,0,0,1-.61.93,1.72,1.72,0,0,1-1.6.3,1.58,1.58,0,0,1-1.22-1.53,168.19,168.19,0,0,1,2.53-31c-2.42,2.44-5.71,5.7-9.95,9.86-5.06,5-8.94,8.88-11.78,11.86l1.54.35c.78.2,1.78.52,3,.93a7.81,7.81,0,0,1,3.17,1.92,6,6,0,0,1,1.56,3.05c.18,1.85-.71,3.59-2.63,5.28a28.07,28.07,0,0,1-6.8,4.14,25.22,25.22,0,0,1-8.16,1.94ZM282.4,175l-3.63,3.91a52,52,0,0,0-3.74,4.62c-1.17,1.74-1.13,2.52-1.06,2.78,0,.09.09.32.56.53.7.35,2.14.61,5.07-.06A24.18,24.18,0,0,0,290,181.7l.15-.15c.77-.77,1.61-1.85,1.4-2.74C290.71,177.68,288.41,176.16,282.4,175Zm-9.15-5a11.14,11.14,0,0,0,2,.67l6.51,1,2.91-3a1.66,1.66,0,0,1-.31.12,1.78,1.78,0,0,1-1.63-.36,3.08,3.08,0,0,0-2.14-1,9.53,9.53,0,0,0-3.18.27,10.39,10.39,0,0,0-2.93,1.24A5.08,5.08,0,0,0,273.25,170.07Zm10.85-3Zm33.24-35.1a31.54,31.54,0,0,0-4.29,8.17q1.27-1.33,2.22-2.43c.82-1,1.6-1.9,2.32-2.83.45-.61.72-1,.78-1.09l.46-.76a3.52,3.52,0,0,0,.29-.52s0-.28.36-1a.53.53,0,0,0,.06-.14,2.45,2.45,0,0,1-.06-1.05,6.66,6.66,0,0,0-1.81,1.31Zm2.43-.18a.6.6,0,0,1,.08.08Z"/></svg>